<svg version="1.1" xmlns="http://www.w3.org/2000/svg" xmlns:xlink="http://www.w3.org/1999/xlink" width="32px" height="32px" viewBox="0,0,256,256"><g fill="none" fill-rule="nonzero" stroke="none" stroke-width="1" stroke-linecap="butt" stroke-linejoin="miter" stroke-miterlimit="10" stroke-dasharray="" stroke-dashoffset="0" font-family="none" font-weight="none" font-size="none" text-anchor="none" style="mix-blend-mode: normal"><g transform="scale(8,8)"><path d="M27.5,11h-0.5c-0.55228,0 -1,-0.44772 -1,-1c0,-0.55228 0.44772,-1 1,-1h0.5c0.27614,0 0.5,-0.22386 0.5,-0.5c0,-0.55228 0.44772,-1 1,-1c0.55228,0 1,0.44772 1,1c0,1.38071 -1.11929,2.5 -2.5,2.5z" fill="#2a7ae4"></path><path d="M25,2h-10.171c-0.79637,-0.00231 -1.56053,0.31423 -2.122,0.879l-5.828,5.829c-0.56452,0.56122 -0.88104,1.32498 -0.879,2.121v16.171c0,1.65685 1.34315,3 3,3h16c1.65685,0 3,-1.34315 3,-3v-22c0,-1.65685 -1.34315,-3 -3,-3z" fill="#eef0f2"></path><path d="M15,2c-0.63918,0.63931 -0.9988,1.50597 -1,2.41v3.59c-0.00329,1.1032 -0.8968,1.99671 -2,2h-3.59c-0.90403,0.0012 -1.77069,0.36082 -2.41,1v-0.17c-0.00421,-0.79636 0.31307,-1.56072 0.88,-2.12l5.83,-5.83c0.55928,-0.56693 1.32364,-0.88421 2.12,-0.88z" fill="#2a7ae4"></path><path d="M29,9.5c-0.55228,0 -1,-0.44772 -1,-1c0,-0.27614 -0.22386,-0.5 -0.5,-0.5h-4.5c-0.55228,0 -1,-0.44772 -1,-1c0,-0.55228 0.44772,-1 1,-1h4.5c1.38071,0 2.5,1.11929 2.5,2.5c0,0.55228 -0.44772,1 -1,1z" fill="#2a7ae4"></path><path d="M15,21h-1.1c-0.12897,-0.62598 -0.37751,-1.22119 -0.732,-1.753l0.783,-0.783c0.37897,-0.39238 0.37355,-1.01608 -0.01218,-1.40182c-0.38573,-0.38573 -1.00944,-0.39115 -1.40182,-0.01218l-0.783,0.783c-0.53203,-0.35496 -1.1276,-0.60385 -1.754,-0.733v-1.1c0,-0.55228 -0.44772,-1 -1,-1c-0.55228,0 -1,0.44772 -1,1v1.1c-0.62598,0.12897 -1.22119,0.37751 -1.753,0.732l-0.783,-0.782c-0.39238,-0.37897 -1.01608,-0.37355 -1.40182,0.01218c-0.38573,0.38573 -0.39115,1.00944 -0.01218,1.40182l0.783,0.783c-0.35484,0.53173 -0.60373,1.12695 -0.733,1.753h-1.1c-0.55228,0 -1,0.44772 -1,1c0,0.55228 0.44772,1 1,1h1.1c0.12897,0.62598 0.37751,1.22119 0.732,1.753l-0.783,0.783c-0.39047,0.39074 -0.39024,1.02403 0.0005,1.4145c0.39074,0.39047 1.02403,0.39024 1.4145,-0.0005l0.783,-0.783c0.53173,0.35484 1.12695,0.60373 1.753,0.733v1.1c0,0.55228 0.44772,1 1,1c0.55228,0 1,-0.44772 1,-1v-1.1c0.62598,-0.12897 1.22119,-0.37751 1.753,-0.732l0.783,0.783c0.39238,0.37897 1.01608,0.37355 1.40182,-0.01218c0.38573,-0.38573 0.39115,-1.00944 0.01218,-1.40182l-0.783,-0.783c0.35496,-0.53203 0.60385,-1.1276 0.733,-1.754h1.1c0.55228,0 1,-0.44772 1,-1c0,-0.55228 -0.44772,-1 -1,-1zM9,24c-1.10457,0 -2,-0.89543 -2,-2c0,-1.10457 0.89543,-2 2,-2c1.10457,0 2,0.89543 2,2c0,1.10457 -0.89543,2 -2,2z" fill="#2a7ae4"></path></g></g></svg>