<svg version="1.1" xmlns="http://www.w3.org/2000/svg" xmlns:xlink="http://www.w3.org/1999/xlink" width="48px" height="48px" viewBox="0,0,256,256"><g fill="none" fill-rule="nonzero" stroke="none" stroke-width="1" stroke-linecap="butt" stroke-linejoin="miter" stroke-miterlimit="10" stroke-dasharray="" stroke-dashoffset="0" font-family="none" font-weight="none" font-size="none" text-anchor="none" style="mix-blend-mode: normal"><g transform="scale(5.33333,5.33333)"><path d="M11.333,26.833l12.841,-12.243l16.885,17.057l-11.636,11.636c-2.297,2.297 -6.056,2.258 -8.397,-0.083l-9.161,-8.181c-2.344,-2.345 -2.383,-6.103 -0.532,-8.186z" fill="#ffeea3"></path><path d="M23.381,19.626c1.172,1.172 3.071,1.172 4.243,0l9.485,-9.485c1.172,-1.172 1.172,-3.071 0,-4.243v0c-1.172,-1.172 -3.071,-1.172 -4.243,0l-9.485,9.485c-1.172,1.172 -1.172,3.072 0,4.243z" fill="#ffeea3"></path><path d="M26.085,25.386c1.172,1.172 3.071,1.172 4.243,0l4.243,-4.243c1.172,-1.172 1.172,-3.07 0,-4.243v0c-1.171,-1.171 -3.071,-1.172 -4.243,0l-4.243,4.243c-1.171,1.172 -1.171,3.071 0,4.243z" fill="#ffeea3"></path><path d="M29.6,30.346c1.172,1.172 3.071,1.172 4.243,0l4.243,-4.243c1.172,-1.172 1.172,-3.07 0,-4.243v0c-1.171,-1.171 -3.071,-1.172 -4.243,0l-4.243,4.244c-1.172,1.171 -1.172,3.071 0,4.242zM32.604,35.858c1.172,1.172 3.07,1.172 4.243,0l4.243,-4.243c1.172,-1.172 1.172,-3.07 0,-4.243v0c-1.171,-1.171 -3.071,-1.172 -4.243,0l-4.243,4.243c-1.171,1.172 -1.171,3.071 0,4.243zM10.019,22.334c-0.074,-1.383 -0.531,-2.779 -1.252,-3.973l-1.577,-2.602c-0.311,-0.508 -0.235,-1.152 0.176,-1.563l0.477,-0.477c1.26,-1.26 3.513,-0.684 4.428,0.231l0.984,0.984c2,2 3.647,4.287 4.425,6.99l1.958,5.01l-9.616,3.739z" fill="#ffeea3"></path><g fill="#c29653"><path d="M30.452,16.798l-2.828,2.828c-0.39,0.39 -0.391,1.023 0,1.414c0.391,0.391 1.024,0.39 1.414,0zM33.987,21.748l-2.828,2.828c-0.39,0.39 -0.391,1.023 0,1.414c0.391,0.391 1.024,0.39 1.414,0zM36.847,27.364l-2.828,2.828c-0.39,0.39 -0.391,1.023 0,1.414c0.391,0.391 1.024,0.39 1.414,0z"></path></g><g fill="#2a7ae4"><path d="M19,10c-0.552,0 -1,-0.448 -1,-1v-6c0,-0.552 0.448,-1 1,-1c0.552,0 1,0.448 1,1v6c0,0.552 -0.448,1 -1,1zM24,11c-0.256,0 -0.512,-0.098 -0.707,-0.293c-0.391,-0.391 -0.391,-1.023 0,-1.414l4,-4c0.391,-0.391 1.023,-0.391 1.414,0c0.391,0.391 0.391,1.023 0,1.414l-4,4c-0.195,0.195 -0.451,0.293 -0.707,0.293zM14,11c-0.256,0 -0.512,-0.098 -0.707,-0.293l-4,-4c-0.391,-0.391 -0.391,-1.023 0,-1.414c0.391,-0.391 1.023,-0.391 1.414,0l4,4c0.391,0.391 0.391,1.023 0,1.414c-0.195,0.195 -0.451,0.293 -0.707,0.293z"></path></g></g></g></svg>