<svg version="1.1" xmlns="http://www.w3.org/2000/svg" xmlns:xlink="http://www.w3.org/1999/xlink" width="100px" height="100px" viewBox="0,0,256,256"><g fill="none" fill-rule="nonzero" stroke="none" stroke-width="1" stroke-linecap="butt" stroke-linejoin="miter" stroke-miterlimit="10" stroke-dasharray="" stroke-dashoffset="0" font-family="none" font-weight="none" font-size="none" text-anchor="none" style="mix-blend-mode: normal"><g transform="scale(2.56,2.56)"><path d="M78.07,10.149c-1.169,-1.942 -3.303,-3.149 -5.57,-3.149h-22.5c-2.646,0 -5.005,1.581 -6.013,4.028l-18.503,45.014c-0.821,2.008 -0.591,4.282 0.614,6.079c1.208,1.807 3.228,2.885 5.401,2.885h9.385l-10.421,26.09c-1.195,2.995 -0.049,6.361 2.732,8.008c0.999,0.591 2.142,0.902 3.303,0.902c1.955,0 3.788,-0.867 5.027,-2.379l41.002,-50.001c1.583,-1.933 1.915,-4.641 0.847,-6.899c-1.067,-2.261 -3.374,-3.721 -5.874,-3.721h-10.154l10.894,-20.454c1.064,-2.003 1,-4.454 -0.17,-6.403z" fill-opacity="0" fill="#ffffff" opacity="0.35"></path><path d="M76.07,8.149c-1.169,-1.942 -3.303,-3.149 -5.57,-3.149h-22.5c-2.646,0 -5.005,1.581 -6.013,4.028l-18.503,45.014c-0.821,2.008 -0.591,4.282 0.614,6.079c1.208,1.807 3.228,2.885 5.401,2.885h9.385l-10.421,26.09c-1.195,2.995 -0.049,6.361 2.732,8.008c0.999,0.591 2.142,0.902 3.303,0.902c1.955,0 3.788,-0.867 5.027,-2.379l41.002,-50.001c1.583,-1.933 1.915,-4.641 0.847,-6.899c-1.067,-2.261 -3.374,-3.721 -5.874,-3.721h-10.154l10.894,-20.454c1.064,-2.003 1,-4.454 -0.17,-6.403z" fill-opacity="0" fill="#ffffff"></path><path d="M75.5,41.505h-20.98l15.98,-30.005h-22.5l-18.5,45.005h18.98l-13.98,35z" fill="#ffeea3"></path><path d="M34.499,93.006c-0.261,0 -0.523,-0.067 -0.762,-0.208c-0.637,-0.377 -0.904,-1.161 -0.63,-1.849l13.158,-32.943h-16.765c-0.5,0 -0.968,-0.249 -1.246,-0.665c-0.278,-0.415 -0.331,-0.942 -0.142,-1.405l18.5,-45.006c0.232,-0.563 0.78,-0.93 1.388,-0.93h22.5c0.526,0 1.015,0.276 1.286,0.728c0.271,0.452 0.285,1.013 0.038,1.478l-14.806,27.8h18.482c0.58,0 1.107,0.334 1.355,0.858c0.248,0.524 0.172,1.145 -0.195,1.593l-41,50c-0.294,0.358 -0.723,0.549 -1.161,0.549zM31.738,55.006h16.742c0.498,0 0.963,0.247 1.242,0.659c0.278,0.411 0.335,0.936 0.15,1.397l-10.381,25.99l32.839,-40.046h-17.81c-0.526,0 -1.015,-0.276 -1.286,-0.728c-0.271,-0.452 -0.285,-1.013 -0.038,-1.478l14.806,-27.8h-18.997z" fill="#c29653"></path></g></g></svg>