<svg version="1.1" xmlns="http://www.w3.org/2000/svg" xmlns:xlink="http://www.w3.org/1999/xlink" width="512" height="512" viewBox="0,0,256,256"><g fill="none" fill-rule="nonzero" stroke="none" stroke-width="1" stroke-linecap="butt" stroke-linejoin="miter" stroke-miterlimit="10" stroke-dasharray="" stroke-dashoffset="0" font-family="none" font-weight="none" font-size="none" text-anchor="none" style="mix-blend-mode: normal"><g transform="scale(0.5,0.5)"><path d="M168,40v104h-0.03l-7.99,24h-47l-8.01,-24h-52.97c-5.30482,-0.00159 -10.39282,2.10503 -14.14389,5.85611c-3.75107,3.75107 -5.8577,8.83908 -5.85611,14.14389v312c-0.00159,5.30482 2.10503,10.39282 5.85611,14.14389c3.75107,3.75107 8.83908,5.8577 14.14389,5.85611h168c1.06862,-0.00006 2.13547,-0.08701 3.19,-0.26c9.69094,-1.55855 16.81517,-9.92454 16.81,-19.74v-58.3l8,30.3h208v-408z" fill="#ffeea3"></path><path d="M160,464h-48c-4.41828,0 -8,3.58172 -8,8c0,4.41828 3.58172,8 8,8h48c4.41828,0 8,-3.58172 8,-8c0,-4.41828 -3.58172,-8 -8,-8z" fill="#c29653"></path><path d="M460,8h-296c-15.45689,0.01708 -27.98292,12.54311 -28,28v100h-84c-15.45689,0.01708 -27.98292,12.54311 -28,28v312c0.01708,15.45689 12.54311,27.98292 28,28h168c1.08603,-0.00261 2.17106,-0.06605 3.25,-0.19v0.19h236.75c15.45689,-0.01708 27.98292,-12.54311 28,-28v-440c-0.01708,-15.45689 -12.54311,-27.98292 -28,-28zM156.87,152l-2.66,8h-35.47l-2.67,-8zM232,476c-0.00551,6.62513 -5.37487,11.99449 -12,12h-168c-6.62513,-0.00551 -11.99449,-5.37487 -12,-12v-312c0.00551,-6.62513 5.37487,-11.99449 12,-12h47.2l6.19,18.54c1.0925,3.2629 4.14906,5.46169 7.59,5.46h47c3.44377,-0.00175 6.49876,-2.21037 7.58,-5.48l6.18,-18.52h46.26c6.62513,0.00551 11.99449,5.37487 12,12zM220,136h-44v-88h272v392h-200v-276c-0.01708,-15.45689 -12.54311,-27.98292 -28,-28zM472,476c-0.00551,6.62513 -5.37487,11.99449 -12,12h-214.71c1.78977,-3.74686 2.71586,-7.84762 2.71,-12v-20h208c4.41828,0 8,-3.58172 8,-8v-408c0,-4.41828 -3.58172,-8 -8,-8h-288c-4.41828,0 -8,3.58172 -8,8v96h-8v-100c0.00551,-6.62513 5.37487,-11.99449 12,-12h296c6.62513,0.00551 11.99449,5.37487 12,12z" fill="#c29653"></path><path d="M336,464h-48c-4.41828,0 -8,3.58172 -8,8c0,4.41828 3.58172,8 8,8h48c4.41828,0 8,-3.58172 8,-8c0,-4.41828 -3.58172,-8 -8,-8z" fill="#c29653"></path></g></g></svg>